<?xml version="1.0" standalone="no"?><!DOCTYPE svg PUBLIC "-//W3C//DTD SVG 1.1//EN" "http://www.w3.org/Graphics/SVG/1.1/DTD/svg11.dtd"><svg t="1548008151610" class="icon" style="" viewBox="0 0 1024 1024" version="1.1" xmlns="http://www.w3.org/2000/svg" p-id="11596" xmlns:xlink="http://www.w3.org/1999/xlink" width="200" height="200"><defs><style type="text/css"></style></defs><path d="M960 90.944l0 842.112C960 983.296 919.104 1024 868.8 1024L279.424 1024 279.424 0l589.376 0C919.104 0 960 40.768 960 90.944zM829.888 580.352c17.664-35.968 26.56-75.392 26.56-118.592 0-72.96-22.656-132.224-68.288-178.24-45.504-45.952-104.64-68.928-177.28-68.928-56.192 0-104.832 12.544-145.92 37.568C423.936 277.312 390.976 313.344 366.208 360.32c-24.704 47.04-37.12 99.264-37.12 156.672 0 54.656 11.968 104.832 35.776 150.4 23.872 45.504 56.96 80.512 99.392 105.152 42.496 24.576 90.24 36.864 143.488 36.864 38.4 0 74.112-5.888 107.328-17.536 12.8-4.544 24.96-9.536 36.544-15.104l0-59.584c-16.896 10.176-34.24 18.56-52.032 25.024-29.952 10.88-60.992 16.256-93.248 16.256-66.176 0-120.064-21.696-162.048-64.96-41.856-43.392-62.72-102.016-62.72-176 0-47.552 9.536-91.008 28.8-130.304 19.328-39.296 46.656-69.248 82.304-89.92C528.32 276.544 567.744 266.24 611.136 266.24c58.688 0 105.472 17.536 140.352 52.672 35.008 35.136 52.352 83.072 52.352 143.744 0 36.992-6.464 68.48-19.2 94.656-12.672 25.984-29.056 46.016-48.768 59.84-13.376 9.344-25.344 14.144-35.968 14.144-4.544 0-8.128-1.28-10.368-3.52-2.176-2.24-3.392-5.504-3.392-9.472 0-2.624 0.384-6.656 1.344-12.096l43.264-272.576-67.52 0-6.208 39.04c-12.736-18.88-25.344-32.128-37.952-39.68C606.72 325.056 592.384 321.344 576 321.344c-41.984 0-77.12 22.72-105.472 68.16C442.176 435.008 428.032 485.888 428.032 542.208c0 47.552 11.008 84.032 33.088 109.504 22.208 25.472 48.576 38.336 79.232 38.336 14.72 0 122.752-0.448 136.64-0.448 23.232 0 48.128-8 74.624-24.128C785.984 644.608 812.096 616.192 829.888 580.352z" p-id="11597" fill="#a8a7ad"></path><path d="M636.864 445.056c0 29.824-4.48 63.488-13.504 100.928C614.4 583.424 603.904 608.32 591.872 620.864 579.904 633.344 566.528 639.616 551.808 639.616c-13.632 0-24.768-5.632-33.472-16.896C506.496 607.552 500.544 586.304 500.544 558.976c0-27.84 4.032-58.432 11.968-91.84 8-33.408 19.712-57.856 35.136-73.216 11.52-11.456 24.896-17.216 40.128-17.216 13.376 0 24.896 5.76 34.624 17.216C632 405.568 636.864 422.528 636.864 445.056z" p-id="11598" fill="#a8a7ad"></path><path d="M235.072 0l0 1024L155.2 1024C104.768 1024 64 983.296 64 933.056L64 90.944C64 40.768 104.768 0 155.2 0L235.072 0zM209.472 282.88c0-24.448-19.904-44.352-44.416-44.352-24.64 0-44.544 19.904-44.544 44.352 0 24.512 19.904 44.416 44.544 44.416C189.568 327.296 209.472 307.392 209.472 282.88zM209.472 508.48c0-24.448-19.904-44.352-44.416-44.352-24.64 0-44.544 19.968-44.544 44.352 0 24.512 19.904 44.416 44.544 44.416C189.568 553.024 209.472 532.992 209.472 508.48zM209.472 730.368c0-24.512-19.904-44.352-44.416-44.352-24.64 0-44.544 19.904-44.544 44.352 0 24.448 19.904 44.352 44.544 44.352C189.568 774.72 209.472 754.88 209.472 730.368z" p-id="11599" fill="#a8a7ad"></path></svg>