<?xml version="1.0" standalone="no"?><!DOCTYPE svg PUBLIC "-//W3C//DTD SVG 1.1//EN" "http://www.w3.org/Graphics/SVG/1.1/DTD/svg11.dtd"><svg t="1546692311837" class="icon" style="" viewBox="0 0 1024 1024" version="1.1" xmlns="http://www.w3.org/2000/svg" p-id="3119" xmlns:xlink="http://www.w3.org/1999/xlink" width="200" height="200"><defs><style type="text/css"></style></defs><path d="M527.247 204.247c113.891 0 227.885 0.717 341.777-0.307 60.373-0.511 88.923 25.48 88.31 87.491-1.434 139.474 0.408 278.947-0.82 418.42-0.716 78.18-31.926 107.241-111.333 107.343-218.573 0.307-437.044 0.307-655.618-0.204-77.667-0.205-124.84-46.764-125.25-123.613-0.716-125.557-0.511-251.114-0.204-376.568 0.204-81.454 30.289-111.845 114.403-112.664 116.245-1.126 232.49-0.307 348.735-0.307v0.41z m-9.21 558.611c109.287 0 218.676-1.33 327.963 0.614 41.443 0.716 58.225-12.382 57.304-55.667-2.252-104.58-0.307-209.364-1.33-314.045-0.103-17.09 9.414-40.625-12.485-49.834-19.954-8.391-32.642 10.13-47.07 21.693-96.906 77.36-195.653 152.572-291.023 231.774-31.517 26.196-51.573 25.275-82.272-0.102-97.11-80.533-197.084-157.484-295.012-237.095-13.098-10.642-25.378-23.74-41.648-19.136-21.08 6.038-13.2 27.22-13.303 42.057-0.716 99.975 1.33 200.052-0.716 300.027-1.126 56.485 23.536 80.328 78.69 79.816 106.831-0.818 213.867-0.204 320.902-0.102zM139.525 262.677c19.851 18.317 25.991 24.763 32.95 30.29 60.885 48.298 121.259 97.211 182.86 144.384 159.837 122.488 160.246 122.488 316.707-2.148 66.41-52.904 131.492-107.343 211.205-172.628-255.411 0.102-490.562 0.102-743.722 0.102z" fill="#515151" p-id="3120"></path></svg>