<?xml version="1.0" standalone="no"?><!DOCTYPE svg PUBLIC "-//W3C//DTD SVG 1.1//EN" "http://www.w3.org/Graphics/SVG/1.1/DTD/svg11.dtd"><svg t="1547647021151" class="icon" style="" viewBox="0 0 1024 1024" version="1.1" xmlns="http://www.w3.org/2000/svg" p-id="5273" xmlns:xlink="http://www.w3.org/1999/xlink" width="200" height="200"><defs><style type="text/css"></style></defs><path d="M829.1 145.3H193.6c-72.4 0-131.3 59.2-131.3 132v342.6c0 72.8 58.9 132 131.3 132h158.5c17.2 16.7 11.7 11.4 16.8 16.3l95.1 91.9c12.7 12.3 29.4 19.1 46.9 19.1s34.2-6.8 46.9-19l95.1-91.9 16.4-16.3h159.9c72.4 0 131.3-59.2 131.3-132V277.3c-0.1-72.8-59-132-131.4-132zM298.4 501.8c-30.2 0-54.7-24.7-54.7-55s24.5-55 54.7-55 54.7 24.7 54.7 55-24.6 55-54.7 55z m212.9 0c-30.2 0-54.7-24.7-54.7-55s24.5-55 54.7-55c30.2 0 54.7 24.7 54.7 55s-24.5 55-54.7 55z m213 0c-30.2 0-54.7-24.7-54.7-55s24.5-55 54.7-55 54.7 24.7 54.7 55-24.5 55-54.7 55z" fill="#5ea750" p-id="5274"></path></svg>