<?xml version="1.0" standalone="no"?><!DOCTYPE svg PUBLIC "-//W3C//DTD SVG 1.1//EN" "http://www.w3.org/Graphics/SVG/1.1/DTD/svg11.dtd"><svg t="1547189204291" class="icon" style="" viewBox="0 0 1024 1024" version="1.1" xmlns="http://www.w3.org/2000/svg" p-id="1344" xmlns:xlink="http://www.w3.org/1999/xlink" width="200" height="200"><defs><style type="text/css"></style></defs><path d="M890.56 386.992c10.896 19.056-13.616-35.408-54.464-35.408H187.92c-24.512 0-40.848 10.896-54.464 32.672C119.824 406.048 0 588.512 0 626.64v247.824c0 38.128 32.672 70.8 70.8 70.8h882.384c38.128 0 70.8-29.952 70.8-70.8V626.64C1024 591.248 890.56 386.992 890.56 386.992s-19.072-35.408 0 0zM659.072 610.304c-16.336 0-29.952 8.176-32.672 24.512v5.44c0 62.64-51.744 114.384-114.384 114.384s-114.384-51.744-114.384-114.384v-8.176c-8.176-21.792-32.688-21.792-32.688-21.792H62.64l103.488-187.92s19.056-32.672 46.304-32.672h610.048c21.792 0 24.512 8.176 40.848 32.672l103.488 187.92H659.072zM291.408 253.536l-78.976-76.256c-8.176-5.44-8.176-19.072 0-27.232a21.36 21.36 0 0 1 29.952 0l78.976 73.536a21.36 21.36 0 0 1 0 29.952c-8.176 5.456-21.776 8.176-29.952 0m215.152-32.672c-2.72-2.72-5.44-8.176-5.44-13.616l-2.72-106.208c0-10.896 8.176-21.792 19.056-21.792 10.896-2.72 21.792 5.44 21.792 16.336l2.72 106.208a20.48 20.48 0 0 1-13.616 19.072c-8.176 5.44-16.352 5.44-21.792 0m201.536 27.232a20.832 20.832 0 0 1-5.456-13.616c0-5.44 2.72-10.896 5.456-13.616l73.536-78.976a21.36 21.36 0 0 1 29.952 0 21.36 21.36 0 0 1 0 29.952l-73.536 78.976c-2.72 2.72-8.176 5.44-13.616 5.44-8.176-2.72-13.616-2.72-16.336-8.16" p-id="1345" fill="#8a8a8a"></path></svg>